<svg id="svg" version="1.1" viewBox="0 0 300 300" width="300" height="300" xmlns="http://www.w3.org/2000/svg"><svg xmlns="http://www.w3.org/2000/svg"><defs><clipPath id="clip-1"><rect x="0" y="0" transform="scale(0.14648,0.14648)" width="2048" height="2048" fill="none"/></clipPath></defs><g clip-path="url(#clip-1)" fill="none" fill-rule="nonzero" stroke="none" stroke-width="1" stroke-linecap="butt" stroke-linejoin="miter" stroke-miterlimit="10" stroke-dasharray="" stroke-dashoffset="0" font-family="none" font-weight="none" font-size="none" text-anchor="none" style="mix-blend-mode: normal"><path d="M142.01602,0h15.84141c1.38574,0.46071 4.74609,0.54689 6.3457,0.66131c2.40967,0.15069 4.81201,0.38082 7.20557,0.69001c13.13086,1.73235 27.72803,6.11591 39.74561,11.5381c30.0791,13.46253 54.93457,36.38528 70.78271,65.27845c6.63135,12.25342 11.53564,25.36582 14.5708,38.96411c1.18213,5.36074 2.10791,10.50278 2.6499,15.97368c0.22266,2.24121 0.271,6.47109 0.84229,8.47119v17.32061c-0.64453,2.52832 -0.69287,6.81445 -1.00635,9.57275c-0.64893,5.89014 -1.70215,11.729 -3.15088,17.47559c-8.73926,35.34668 -29.99707,66.32666 -59.83301,87.20068c-20.33643,14.33496 -44.12549,22.93066 -68.65723,26.05811c-2.37598,0.30322 -5.95605,0.14941 -8.16211,0.79541h-18.54639c-2.12373,-0.54053 -5.60039,-0.47314 -7.82578,-0.79541c-3.50874,-0.50684 -7.04268,-1.11621 -10.53237,-1.73291c-17.59307,-3.25195 -34.45708,-9.64453 -49.78506,-18.87158c-34.14697,-20.62061 -58.72017,-53.94434 -68.32849,-92.65869c-1.4442,-5.74072 -2.40415,-11.55176 -3.18767,-17.4126c-0.3896,-2.91504 -0.24975,-7.07959 -0.98468,-9.80859v-17.31504c0.51748,-1.62554 0.58842,-6.70986 0.82712,-8.65356c0.34296,-2.79258 0.78185,-5.53345 1.22901,-8.30933c2.67678,-15.78062 7.8704,-31.02876 15.38254,-45.16245c19.77642,-37.06392 54.20684,-64.1209 94.8958,-74.5735c6.44883,-1.67087 12.99917,-2.92245 19.60986,-3.74686c2.26934,-0.28105 8.35488,-0.35898 10.07168,-0.95948z" fill="#9862f3"/><path d="M103.80146,61.79106c1.43379,0.37148 2.86099,1.22813 4.29434,1.66641c12.69199,3.88154 26.20752,2.78994 39.28213,3.08013c18.73389,0.41558 38.76123,3.69097 54.30615,14.82085c1.87061,1.33828 3.68115,3.21899 4.98779,5.1063c1.59082,2.28691 2.03467,4.67798 2.39502,7.373c3.04541,0.21035 6.49951,1.00342 9.46875,1.68765c7.97754,1.83882 16.62891,4.23809 23.2998,9.14297c5.68652,4.25581 9.44678,10.59932 10.4502,17.63115c0.99902,6.60688 -0.55957,10.62773 -4.40918,15.84624c-1.29932,-6.37266 -5.72607,-11.39722 -11.95605,-13.3333c-12.94189,-4.02144 -27.15381,-3.77725 -40.56738,-3.43652c-1.27441,0.03237 -6.01172,0.13374 -6.99023,0.59634c-0.18604,0.40723 -0.13916,0.43213 -0.104,0.89194c0.06592,0.07632 0.10986,0.1793 0.19775,0.22896c0.53613,0.30439 6.14648,0.03032 7.13965,0.01831c10.19385,-0.12349 22.4165,-0.11865 32.42871,1.71592c6.82617,1.25083 12.15527,2.87725 16.24219,8.81602c-1.88086,-1.62686 -5.01709,-4.34956 -7.38721,-2.00259c-1.93359,1.91455 -1.56299,5.94639 -1.58789,8.52671c3.17725,-0.00835 9.92432,-0.39932 12.70166,0.32095c1.55859,-1.53794 2.95313,-3.59546 4.10303,-5.44321c-0.01904,1.58467 -0.01465,3.44517 0.13623,5.00493c0.68848,0.30322 1.57178,0.71162 1.9834,1.36992c0.60791,0.9731 0.46582,14.4334 0.11572,16.07842c-0.20508,0.97119 -0.93164,1.4751 -1.73145,1.97021c-2.50488,0.17432 -20.02588,0.33838 -21.51416,-0.08789c-0.62402,-0.17871 -1.14111,-0.76611 -1.41797,-1.33008c-0.32227,-0.65771 -0.44092,-1.4165 -0.51123,-2.1416c-0.23291,-2.44482 -0.04395,-5.03027 -0.03662,-7.48975c0.00439,-1.63184 -0.1626,-3.33179 -0.03223,-4.95381c0.04102,-0.50376 0.12598,-0.98555 0.30762,-1.45913c0.39258,-1.02729 1.10742,-1.65762 2.08887,-2.10747c-0.10986,-4.50059 -0.66211,-7.18945 2.23975,-10.79707c-8.8667,-0.58125 -24.24463,-0.51475 -32.66602,2.07803c-2.1665,0.66855 -4.229,1.63096 -6.1333,2.8604c-6.53174,4.20381 -9.49951,9.53921 -11.11084,16.95132c-0.87451,5.29395 -0.94043,10.68896 -0.19629,16.00342c0.41016,2.83594 1.16455,5.36719 1.79883,8.13281c1.89404,8.26904 4.46191,15.34717 5.43018,23.82715c1.86621,16.35938 -2.41846,31.26123 -11.92529,44.60449c-1.6582,2.32617 -3.42773,4.17334 -5.16943,6.38818c-1.28906,-8.49316 -3.28711,-16.82373 -8.47998,-23.89453c-2.48584,-3.38379 -6.20068,-6.41455 -9.41162,-9.09521c-5.90332,-4.9292 -12.3,-9.271 -18.32563,-14.05078c-9.03955,-7.12793 -15.28359,-14.14746 -22.17671,-23.2793c-1.25728,4.69336 -2.30186,10.57324 -3.25957,15.36768c-9.9353,-1.86621 -19.24351,-8.20166 -25.31777,-16.14697c-0.47271,-0.61816 -0.95244,-1.23047 -1.42705,-1.84863c-0.58975,1.32129 -1.58716,2.63525 -2.66089,3.59619c-7.20527,6.45703 -16.99673,5.4375 -25.92231,5.3833c-5.91987,-0.03662 -11.76797,-0.04248 -17.67539,-0.24902c19.21172,-13.79297 23.25586,-32.02148 30.17476,-53.33408c1.22871,-3.78501 2.36895,-7.7855 3.76025,-11.5144c7.14185,-19.14229 20.08228,-38.71113 39.31963,-47.35034c-3.8896,-3.14399 -7.68193,-6.42012 -8.54868,-11.74058z" fill="#000000"/><path d="M170.26904,90.48691c5.18701,-1.02744 10.21729,2.36997 11.20166,7.56562c0.98438,5.19565 -2.45508,10.1978 -7.6582,11.1394c-5.14307,0.93062 -10.0752,-2.45962 -11.04785,-7.59492c-0.97266,-5.1353 2.37744,-10.09468 7.50439,-11.11011z" fill="#9862f3"/><path d="M240.9917,145.34224c1.45898,-0.11748 2.81689,0.07588 3.64014,1.44976c0.39551,0.66064 0.50977,1.45166 0.31348,2.19727c-0.30908,1.2041 -0.98291,1.69043 -1.98193,2.28369c-0.07178,1.19678 -0.09521,1.82666 -0.36328,2.98535c-0.59033,0.26367 -0.7207,0.26953 -1.23779,0.08789c-0.68848,-0.71924 -0.5625,-1.92334 -0.60205,-2.95898c-2.31445,-2.10937 -3.17725,-4.45898 0.23145,-6.04497z" fill="#9862f3"/><path d="M217.45313,104.17339c0.73096,-0.03325 1.90869,0.12378 2.42285,0.70005c0.52295,2.0001 -3.62842,3.64043 -5.10059,4.16147c-1.02539,0.26865 -1.51025,0.35918 -2.56201,0.48779c0.65918,-3.15044 2.07129,-4.68076 5.23975,-5.34932z" fill="#9862f3"/></g></svg></svg>